<?xml version="1.0" encoding="UTF-8"?>
<svg version="1.1" xmlns="http://www.w3.org/2000/svg" width="512" height="512">
<path d="M0 0 C7.08617684 6.44802208 12.19659978 15.84420917 12.78515625 25.46484375 C12.95533357 39.27756987 10.40504111 48.96166294 0.62890625 59.1875 C-8.57585778 67.68559907 -18.4941563 70.63157377 -30.9453125 70.3828125 C-39.72566465 69.78033614 -46.63144379 66.09376209 -54.31494141 62.13232422 C-75.52207678 51.36163373 -100.28723151 50.19613573 -122.84765625 57.2109375 C-135.01599175 61.63180759 -145.60790607 67.73340799 -155.41796875 76.14453125 C-156.00707031 76.58925781 -156.59617187 77.03398437 -157.203125 77.4921875 C-175.88490947 91.93413436 -186.41080908 117.28161995 -190.02099609 139.94360352 C-190.68069442 145.26297915 -190.75851297 150.5396872 -190.73046875 155.89453125 C-190.7248291 157.03196777 -190.71918945 158.1694043 -190.71337891 159.34130859 C-190.35951599 183.99609401 -181.64987578 207.47096023 -165.41796875 226.14453125 C-164.7528125 227.02431641 -164.7528125 227.02431641 -164.07421875 227.921875 C-150.59618424 245.38579166 -127.78129655 255.37149675 -106.48046875 258.45703125 C-80.97226549 261.24699098 -55.46996464 254.69425025 -35.29296875 238.51953125 C-33.64961762 237.08190884 -32.02235972 235.62550753 -30.41796875 234.14453125 C-29.77730469 233.5721875 -29.13664063 232.99984375 -28.4765625 232.41015625 C-24.91347057 229.06228464 -22.064549 225.38539977 -19.2109375 221.41796875 C-18.49832764 220.42974121 -17.78571777 219.44151367 -17.05151367 218.42333984 C-16.24290894 217.29532959 -16.24290894 217.29532959 -15.41796875 216.14453125 C-16.07814499 216.14088562 -16.73832123 216.13723999 -17.41850281 216.13348389 C-24.3468125 216.09137532 -31.2744771 216.02183441 -38.20239258 215.93701172 C-40.78110269 215.90894544 -43.35989654 215.8876603 -45.9387207 215.87353516 C-49.66530795 215.85190668 -53.3909034 215.80515325 -57.1171875 215.75390625 C-58.25314865 215.75267761 -59.3891098 215.75144897 -60.55949402 215.75018311 C-73.19311487 215.52374532 -84.74807543 212.28788727 -94.125 203.5546875 C-103.0152461 193.98923284 -105.00101512 183.37326534 -104.75 170.76953125 C-104.19844227 159.62034778 -98.46474298 151.51396758 -90.41796875 144.14453125 C-80.81750446 136.37450568 -69.90300931 135.69039891 -57.96875 135.74609375 C-56.58407946 135.74406586 -55.19940998 135.74114852 -53.81474304 135.73739624 C-50.92432402 135.73299905 -48.034185 135.73931391 -45.14379883 135.75341797 C-41.48413924 135.77042787 -37.825144 135.76070471 -34.16550922 135.74270058 C-31.30742125 135.73172219 -28.44948378 135.7353737 -25.59139061 135.74308395 C-23.6004988 135.74599258 -21.60960055 135.73705549 -19.61872864 135.72769165 C5.18078237 135.91561753 24.9961682 144.59015479 42.515625 162.07421875 C61.27519337 182.21255272 62.85880994 208.68660103 62.28125 234.69921875 C61.87506197 245.88330477 58.66981251 253.54448631 51.58203125 262.14453125 C50.4528125 263.75714844 50.4528125 263.75714844 49.30078125 265.40234375 C47.16855273 268.42300082 44.92407941 271.2841929 42.58203125 274.14453125 C42.14745605 274.67916992 41.71288086 275.21380859 41.26513672 275.76464844 C31.49570982 287.73783594 21.00890255 297.95227718 8.58203125 307.14453125 C8.01274902 307.56879395 7.4434668 307.99305664 6.85693359 308.43017578 C-28.85409957 334.66748094 -75.88535466 345.22773862 -119.54296875 338.95703125 C-153.23130496 333.57542533 -182.54608983 319.23028155 -208.41796875 297.14453125 C-209.22234375 296.46390625 -210.02671875 295.78328125 -210.85546875 295.08203125 C-215.84355555 290.76801023 -220.1983876 286.20273208 -224.41796875 281.14453125 C-225.55878906 279.83548828 -225.55878906 279.83548828 -226.72265625 278.5 C-260.80191979 238.84702513 -273.59482278 188.45183243 -270.20703125 136.93701172 C-266.54292266 95.41738729 -248.03989361 52.86578491 -217.41796875 24.14453125 C-216.57234375 23.29890625 -215.72671875 22.45328125 -214.85546875 21.58203125 C-214.05109375 20.77765625 -213.24671875 19.97328125 -212.41796875 19.14453125 C-211.93344238 18.63535156 -211.44891602 18.12617187 -210.94970703 17.6015625 C-206.59367369 13.09202961 -201.96002115 9.33564824 -196.85546875 5.70703125 C-196.065354 5.14282471 -195.27523926 4.57861816 -194.46118164 3.99731445 C-139.57298533 -34.68764248 -55.70280981 -42.74448249 0 0 Z " fill="#0044CC" transform="translate(360.41796875,99.85546875)"/>
<path d="M0 0 C1.38467054 -0.00202789 2.76934002 -0.00494523 4.15400696 -0.00869751 C7.04442598 -0.0130947 9.934565 -0.00677984 12.82495117 0.00732422 C16.48461076 0.02433412 20.143606 0.01461096 23.80324078 -0.00339317 C26.66132875 -0.01437156 29.51926622 -0.01072005 32.37735939 -0.0030098 C34.3682512 -0.00010117 36.35914945 -0.00903826 38.35002136 -0.0184021 C63.14953237 0.16952378 82.9649182 8.84406104 100.484375 26.328125 C119.24394337 46.46645897 120.82755994 72.94050728 120.25 98.953125 C119.84381197 110.13721102 116.63856251 117.79839256 109.55078125 126.3984375 C108.4215625 128.01105469 108.4215625 128.01105469 107.26953125 129.65625 C105.13730273 132.67690707 102.89282941 135.53809915 100.55078125 138.3984375 C99.89891846 139.20039551 99.89891846 139.20039551 99.23388672 140.01855469 C89.46445982 151.99174219 78.97765255 162.20618343 66.55078125 171.3984375 C65.98149902 171.8227002 65.4122168 172.24696289 64.82568359 172.68408203 C29.11465043 198.92138719 -17.91660466 209.48164487 -61.57421875 203.2109375 C-79.62786062 200.32692491 -100.07155518 195.65021321 -115.44921875 185.3984375 C-140.290352 145.65064138 -146.20459773 92.49506784 -136.44921875 47.3984375 C-135.51535052 43.71160945 -134.5128979 40.04981986 -133.44921875 36.3984375 C-131.56069439 39.99283607 -130.60426644 43.44590224 -129.63671875 47.3984375 C-122.78622615 73.89490139 -107.25702471 96.39538382 -83.7890625 110.6796875 C-62.11800243 123.21510475 -36.73749438 126.47591643 -12.45703125 120.46875 C2.54754147 116.35381461 16.12470954 108.94558062 27.55078125 98.3984375 C28.19144531 97.82609375 28.83210937 97.25375 29.4921875 96.6640625 C33.05527943 93.31619089 35.904201 89.63930602 38.7578125 85.671875 C39.47042236 84.68364746 40.18303223 83.69541992 40.91723633 82.67724609 C41.45630615 81.92523926 41.99537598 81.17323242 42.55078125 80.3984375 C41.89060501 80.39479187 41.23042877 80.39114624 40.55024719 80.38739014 C33.6219375 80.34528157 26.6942729 80.27574066 19.76635742 80.19091797 C17.18764731 80.16285169 14.60885346 80.14156655 12.0300293 80.12744141 C8.30344205 80.10581293 4.5778466 80.0590595 0.8515625 80.0078125 C-0.28439865 80.00658386 -1.4203598 80.00535522 -2.59074402 80.00408936 C-15.22436487 79.77765157 -26.77932543 76.54179352 -36.15625 67.80859375 C-45.0464961 58.24313909 -47.03226512 47.62717159 -46.78125 35.0234375 C-46.22969227 23.87425403 -40.49599298 15.76787383 -32.44921875 8.3984375 C-22.84875446 0.62841193 -11.93425931 -0.05569484 0 0 Z " fill="#0076FE" transform="translate(302.44921875,235.6015625)"/>
<path d="M0 0 C1.38467054 -0.00202789 2.76934002 -0.00494523 4.15400696 -0.00869751 C7.04442598 -0.0130947 9.934565 -0.00677984 12.82495117 0.00732422 C16.48461076 0.02433412 20.143606 0.01461096 23.80324078 -0.00339317 C26.66132875 -0.01437156 29.51926622 -0.01072005 32.37735939 -0.0030098 C34.3682512 -0.00010117 36.35914945 -0.00903826 38.35002136 -0.0184021 C63.14953237 0.16952378 82.9649182 8.84406104 100.484375 26.328125 C117.04670209 44.1077278 119.90397644 65.9628754 119.67578125 89.0859375 C119.66572964 90.86653142 119.65660765 92.64713083 119.6484375 94.42773438 C119.62660073 98.75144009 119.59219162 103.07487676 119.55078125 107.3984375 C119.22078125 107.3984375 118.89078125 107.3984375 118.55078125 107.3984375 C118.40382813 106.625 118.256875 105.8515625 118.10546875 105.0546875 C115.8969587 94.7990776 112.07499226 88.93488663 103.7734375 82.625 C97.42832544 79.12347946 91.20521512 79.13517096 84.14013672 79.23486328 C82.60447807 79.24406296 82.60447807 79.24406296 81.03779602 79.25344849 C78.82251706 79.26771392 76.6072634 79.28647041 74.39205551 79.30923843 C70.87619087 79.34416502 67.36050996 79.3646651 63.84451294 79.381073 C53.85026669 79.42983865 43.85626728 79.50079575 33.86230469 79.59033203 C27.73991656 79.64417259 21.61767176 79.67808008 15.49509048 79.70006943 C13.17243287 79.71241459 10.84980179 79.73233075 8.5272789 79.7602272 C-8.19095667 79.95917923 -23.20043949 79.87498935 -36.15625 67.80859375 C-45.0464961 58.24313909 -47.03226512 47.62717159 -46.78125 35.0234375 C-46.22969227 23.87425403 -40.49599298 15.76787383 -32.44921875 8.3984375 C-22.84875446 0.62841193 -11.93425931 -0.05569484 0 0 Z " fill="#00ACFF" transform="translate(302.44921875,235.6015625)"/>
</svg>
