<?xml version="1.0" encoding="UTF-8"?>
<svg version="1.1" xmlns="http://www.w3.org/2000/svg" width="512" height="512">
<path d="M0 0 C1.01790619 0.00215515 2.03581238 0.0043103 3.08456421 0.00653076 C17.69363523 0.05620146 32.02575853 0.30709809 46.375 3.3125 C47.34985352 3.51117676 48.32470703 3.70985352 49.32910156 3.91455078 C97.7109774 14.03517194 141.69928269 35.9516877 177.375 70.3125 C178.3640332 71.26068604 178.3640332 71.26068604 179.37304688 72.22802734 C188.86130305 81.37247479 197.6012044 90.66984009 205.375 101.3125 C206.23306152 102.46355017 207.09113451 103.61459177 207.94921875 104.765625 C213.98736829 112.95680614 219.34595521 121.47054105 224.375 130.3125 C224.73948242 130.94430176 225.10396484 131.57610352 225.47949219 132.22705078 C247.08534998 169.97532572 256.85198095 212.74189997 256.6875 255.9375 C256.68534485 256.95540619 256.6831897 257.97331238 256.68096924 259.02206421 C256.63129854 273.63113523 256.38040191 287.96325853 253.375 302.3125 C253.07698486 303.77478027 253.07698486 303.77478027 252.77294922 305.26660156 C242.65232806 353.6484774 220.7358123 397.63678269 186.375 433.3125 C185.74287598 433.97185547 185.11075195 434.63121094 184.45947266 435.31054688 C175.31502521 444.79880305 166.01765991 453.5387044 155.375 461.3125 C154.22394983 462.17056152 153.07290823 463.02863451 151.921875 463.88671875 C143.73224019 469.92427396 135.22961724 475.30707302 126.375 480.3125 C125.66778809 480.7146875 124.96057617 481.116875 124.23193359 481.53125 C101.09654164 494.5566741 75.92537591 503.30551461 49.9375 508.625 C49.21860596 508.77235596 48.49971191 508.91971191 47.7590332 509.0715332 C33.08339502 511.86090125 18.55831162 512.66142619 3.64770508 512.62817383 C0.70811513 512.6250221 -2.2304558 512.64854926 -5.16992188 512.67382812 C-18.54306192 512.71848737 -31.43916711 511.51301542 -44.625 509.3125 C-46.33055054 509.03031616 -46.33055054 509.03031616 -48.07055664 508.74243164 C-91.33802759 500.97044532 -132.38793216 480.98345309 -165.625 452.3125 C-166.37007813 451.67828125 -167.11515625 451.0440625 -167.8828125 450.390625 C-181.38779833 438.57948485 -194.05918743 425.82889772 -204.625 411.3125 C-205.48149066 410.16255169 -206.33826433 409.01281411 -207.1953125 407.86328125 C-213.23534209 399.67315742 -218.61867614 391.16870382 -223.625 382.3125 C-224.0271875 381.60528809 -224.429375 380.89807617 -224.84375 380.16943359 C-237.8691741 357.03404164 -246.61801461 331.86287591 -251.9375 305.875 C-252.08485596 305.15610596 -252.23221191 304.43721191 -252.3840332 303.6965332 C-255.35789088 288.05024391 -255.99800362 272.57681954 -255.9375 256.6875 C-255.93534485 255.66959381 -255.9331897 254.65168762 -255.93096924 253.60293579 C-255.88129854 238.99386477 -255.63040191 224.66174147 -252.625 210.3125 C-252.42632324 209.33764648 -252.22764648 208.36279297 -252.02294922 207.35839844 C-247.35365816 185.03673887 -240.25633162 163.81295845 -230.50488281 143.21337891 C-229.45548165 140.94627639 -228.51387326 138.64696188 -227.625 136.3125 C-228.1303125 136.00957031 -228.635625 135.70664063 -229.15625 135.39453125 C-229.8059375 134.97558594 -230.455625 134.55664062 -231.125 134.125 C-231.7746875 133.71894531 -232.424375 133.31289062 -233.09375 132.89453125 C-234.625 131.3125 -234.625 131.3125 -235.06640625 128.8125 C-234.625 126.3125 -234.625 126.3125 -233.12109375 124.79296875 C-232.10208984 124.15294922 -232.10208984 124.15294922 -231.0625 123.5 C-226.08859061 120.09260656 -221.35777431 115.77804861 -218.625 110.3125 C-217.305 110.3125 -215.985 110.3125 -214.625 110.3125 C-213.635 111.3025 -213.635 111.3025 -212.625 112.3125 C-211.51705078 110.80623047 -211.51705078 110.80623047 -210.38671875 109.26953125 C-194.38494488 87.6310413 -176.58592826 67.11990261 -154.625 51.3125 C-153.47835128 50.46073199 -152.33253275 49.60784537 -151.1875 48.75390625 C-142.99589798 42.70646867 -134.48596602 37.32151588 -125.625 32.3125 C-124.91778809 31.9103125 -124.21057617 31.508125 -123.48193359 31.09375 C-100.34654164 18.0683259 -75.17537591 9.31948539 -49.1875 4 C-48.46860596 3.85264404 -47.74971191 3.70528809 -47.0090332 3.5534668 C-31.36274391 0.57960912 -15.88931954 -0.06050362 0 0 Z " fill="#2B3893" transform="translate(255.625,-0.3125)"/>
<path d="M0 0 C1.01790619 0.00215515 2.03581238 0.0043103 3.08456421 0.00653076 C17.69363523 0.05620146 32.02575853 0.30709809 46.375 3.3125 C47.34985352 3.51117676 48.32470703 3.70985352 49.32910156 3.91455078 C97.7109774 14.03517194 141.69928269 35.9516877 177.375 70.3125 C178.3640332 71.26068604 178.3640332 71.26068604 179.37304688 72.22802734 C188.86130305 81.37247479 197.6012044 90.66984009 205.375 101.3125 C206.23306152 102.46355017 207.09113451 103.61459177 207.94921875 104.765625 C213.98736829 112.95680614 219.34595521 121.47054105 224.375 130.3125 C224.73948242 130.94430176 225.10396484 131.57610352 225.47949219 132.22705078 C247.08534998 169.97532572 256.85198095 212.74189997 256.6875 255.9375 C256.68534485 256.95540619 256.6831897 257.97331238 256.68096924 259.02206421 C256.63129854 273.63113523 256.38040191 287.96325853 253.375 302.3125 C253.07698486 303.77478027 253.07698486 303.77478027 252.77294922 305.26660156 C242.65232806 353.6484774 220.7358123 397.63678269 186.375 433.3125 C185.74287598 433.97185547 185.11075195 434.63121094 184.45947266 435.31054688 C175.31502521 444.79880305 166.01765991 453.5387044 155.375 461.3125 C154.22394983 462.17056152 153.07290823 463.02863451 151.921875 463.88671875 C143.73224019 469.92427396 135.22961724 475.30707302 126.375 480.3125 C125.66778809 480.7146875 124.96057617 481.116875 124.23193359 481.53125 C101.09654164 494.5566741 75.92537591 503.30551461 49.9375 508.625 C49.21860596 508.77235596 48.49971191 508.91971191 47.7590332 509.0715332 C33.08339502 511.86090125 18.55831162 512.66142619 3.64770508 512.62817383 C0.70811513 512.6250221 -2.2304558 512.64854926 -5.16992188 512.67382812 C-18.54306192 512.71848737 -31.43916711 511.51301542 -44.625 509.3125 C-46.33055054 509.03031616 -46.33055054 509.03031616 -48.07055664 508.74243164 C-91.33802759 500.97044532 -132.38793216 480.98345309 -165.625 452.3125 C-166.37007813 451.67828125 -167.11515625 451.0440625 -167.8828125 450.390625 C-181.38779833 438.57948485 -194.05918743 425.82889772 -204.625 411.3125 C-205.48149066 410.16255169 -206.33826433 409.01281411 -207.1953125 407.86328125 C-213.23534209 399.67315742 -218.61867614 391.16870382 -223.625 382.3125 C-224.0271875 381.60528809 -224.429375 380.89807617 -224.84375 380.16943359 C-237.8691741 357.03404164 -246.61801461 331.86287591 -251.9375 305.875 C-252.08485596 305.15610596 -252.23221191 304.43721191 -252.3840332 303.6965332 C-255.35789088 288.05024391 -255.99800362 272.57681954 -255.9375 256.6875 C-255.93534485 255.66959381 -255.9331897 254.65168762 -255.93096924 253.60293579 C-255.88129854 238.99386477 -255.63040191 224.66174147 -252.625 210.3125 C-252.42632324 209.33764648 -252.22764648 208.36279297 -252.02294922 207.35839844 C-247.35365816 185.03673887 -240.25633162 163.81295845 -230.50488281 143.21337891 C-229.45548165 140.94627639 -228.51387326 138.64696188 -227.625 136.3125 C-228.1303125 136.00957031 -228.635625 135.70664063 -229.15625 135.39453125 C-229.8059375 134.97558594 -230.455625 134.55664062 -231.125 134.125 C-231.7746875 133.71894531 -232.424375 133.31289062 -233.09375 132.89453125 C-234.625 131.3125 -234.625 131.3125 -235.06640625 128.8125 C-234.625 126.3125 -234.625 126.3125 -233.12109375 124.79296875 C-232.10208984 124.15294922 -232.10208984 124.15294922 -231.0625 123.5 C-226.08859061 120.09260656 -221.35777431 115.77804861 -218.625 110.3125 C-217.305 110.3125 -215.985 110.3125 -214.625 110.3125 C-213.635 111.3025 -213.635 111.3025 -212.625 112.3125 C-211.51705078 110.80623047 -211.51705078 110.80623047 -210.38671875 109.26953125 C-194.38494488 87.6310413 -176.58592826 67.11990261 -154.625 51.3125 C-153.47835128 50.46073199 -152.33253275 49.60784537 -151.1875 48.75390625 C-142.99589798 42.70646867 -134.48596602 37.32151588 -125.625 32.3125 C-124.91778809 31.9103125 -124.21057617 31.508125 -123.48193359 31.09375 C-100.34654164 18.0683259 -75.17537591 9.31948539 -49.1875 4 C-48.46860596 3.85264404 -47.74971191 3.70528809 -47.0090332 3.5534668 C-31.36274391 0.57960912 -15.88931954 -0.06050362 0 0 Z M-73.9375 53.75 C-78.15503716 56.39352808 -78.15503716 56.39352808 -82.25 55.6875 C-83.425625 55.006875 -83.425625 55.006875 -84.625 54.3125 C-85.45644531 55.26962891 -85.45644531 55.26962891 -86.3046875 56.24609375 C-87.02914062 57.07238281 -87.75359375 57.89867187 -88.5 58.75 C-89.21929687 59.57371094 -89.93859375 60.39742187 -90.6796875 61.24609375 C-92.625 63.3125 -92.625 63.3125 -94.625 64.3125 C-94.23441406 65.05628906 -93.84382812 65.80007812 -93.44140625 66.56640625 C-93.17199219 67.47261719 -92.90257812 68.37882812 -92.625 69.3125 C-93.71484375 71.27734375 -93.71484375 71.27734375 -95.5625 73.25 C-109.93962428 90.37236258 -111.31704293 109.88844806 -110.625 131.3125 C-111.21667969 131.10753906 -111.80835938 130.90257812 -112.41796875 130.69140625 C-119.98004314 128.11314598 -126.33599148 127.14991667 -134.3125 127.1875 C-135.65344727 127.18496216 -135.65344727 127.18496216 -137.02148438 127.18237305 C-141.63786833 127.19794619 -146.05494684 127.40557634 -150.625 128.125 C-152.84375 128.421875 -152.84375 128.421875 -154.625 128.3125 C-157.125 125.875 -157.125 125.875 -158.625 123.3125 C-159.285 123.3125 -159.945 123.3125 -160.625 123.3125 C-162.32785795 125.03413399 -162.32785795 125.03413399 -164.0625 127.1875 C-166.20900884 129.77443722 -167.79276562 131.42434374 -170.625 133.3125 C-170.91761719 133.95316406 -171.21023437 134.59382813 -171.51171875 135.25390625 C-173.00213557 138.00986998 -174.70730839 138.74299819 -177.4375 140.25 C-195.05566816 151.09372817 -206.04745023 168.63643812 -211.4375 188.375 C-214.89111141 204.81419031 -212.42058185 220.40390082 -206.4765625 235.921875 C-205.49072797 238.68944715 -204.94061001 241.39310743 -204.625 244.3125 C-206.275 244.6425 -207.925 244.9725 -209.625 245.3125 C-211.605 243.0025 -213.585 240.6925 -215.625 238.3125 C-219.34709954 240.17354977 -220.55723212 241.12100583 -223.0625 244.1875 C-225.68853496 247.30025695 -228.31400776 249.90450564 -231.625 252.3125 C-230.48814577 255.72306269 -229.47168031 256.51184165 -226.75 258.75 C-221.15008398 263.36838092 -221.15008398 263.36838092 -219.625 266.3125 C-219.77854366 268.21934629 -219.95226336 270.12877543 -220.27050781 272.01513672 C-223.03017726 289.89977135 -220.13631205 305.9510162 -209.6171875 320.796875 C-207.94196461 322.91225449 -206.26849666 324.77604793 -204.3125 326.625 C-201.625 329.3125 -201.625 329.3125 -200.30078125 332.66015625 C-198.71806923 336.57185422 -196.29852942 338.64786527 -193.125 341.4375 C-187.16797548 347.30725967 -186.38959686 352.86226792 -185.61621094 360.95947266 C-184.00148201 377.28907002 -177.78182327 394.3105425 -167.625 407.3125 C-167.934375 407.910625 -168.24375 408.50875 -168.5625 409.125 C-169.72709704 411.40206772 -169.72709704 411.40206772 -170.625 414.3125 C-170.07070312 414.78300781 -169.51640625 415.25351562 -168.9453125 415.73828125 C-167.85863281 416.67220703 -167.85863281 416.67220703 -166.75 417.625 C-165.67105469 418.54732422 -165.67105469 418.54732422 -164.5703125 419.48828125 C-162.625 421.3125 -162.625 421.3125 -160.625 424.3125 C-159.635 423.9825 -158.645 423.6525 -157.625 423.3125 C-157.295 422.6525 -156.965 421.9925 -156.625 421.3125 C-153.01572266 422.61057343 -150.28595352 424.17243564 -147.25 426.5 C-136.39334263 434.22028969 -124.55290729 438.47780936 -111.625 441.3125 C-110.67753906 441.52648437 -109.73007813 441.74046875 -108.75390625 441.9609375 C-103.95480063 442.9003369 -99.37861866 443.34764713 -94.4921875 443.30078125 C-80.13323517 443.25673538 -80.13323517 443.25673538 -75.8125 446.28125 C-73.83859336 448.86006351 -72.24448939 451.50033246 -70.625 454.3125 C-57.3240376 470.23656056 -38.50484442 477.96957264 -18.42578125 480.76953125 C-14.625 481.3125 -14.625 481.3125 -12.44995117 481.90893555 C-11.84771729 482.04211182 -11.2454834 482.17528809 -10.625 482.3125 C-10.295 481.9825 -9.965 481.6525 -9.625 481.3125 C-7.62783573 481.05981001 -5.6269381 480.83656846 -3.625 480.625 C19.6033056 477.40804525 37.74816024 465.28703196 52.375 447.3125 C55.03195385 447.77142839 57.44641603 448.33920059 59.9765625 449.28515625 C68.36437059 452.30866847 76.20109 452.72050611 85.0625 452.75 C86.20219238 452.75974854 87.34188477 452.76949707 88.51611328 452.77954102 C109.46912948 452.57161959 127.65672767 442.77788105 142.375 428.3125 C143.00148438 427.69890625 143.62796875 427.0853125 144.2734375 426.453125 C153.04752856 417.16291093 158.39006836 405.6135604 161.375 393.3125 C161.71144531 392.03052734 161.71144531 392.03052734 162.0546875 390.72265625 C163.40595895 384.715977 163.57545088 378.75611373 163.625 372.625 C163.63901855 371.43076416 163.63901855 371.43076416 163.65332031 370.21240234 C163.62479854 364.93477743 162.83600695 360.38544081 161.375 355.3125 C162.06722656 355.18875 162.75945312 355.065 163.47265625 354.9375 C182.19074076 350.99165873 198.72070533 339.15780628 209.375 323.3125 C220.63325696 304.74860804 225.88661465 283.28242941 220.93823242 261.85083008 C218.84793303 253.78894576 216.05771135 247.01577557 211.53515625 239.9765625 C210.375 237.3125 210.375 237.3125 210.95703125 234.90625 C211.42496094 234.0503125 211.89289063 233.194375 212.375 232.3125 C212.94476563 231.17554688 213.51453125 230.03859375 214.1015625 228.8671875 C215.05567457 227.01064442 216.01567943 225.1575722 216.984375 223.30859375 C218.45427568 220.43672898 219.375 218.58696133 219.375 215.3125 C220.096875 215.27125 220.81875 215.23 221.5625 215.1875 C225.50485482 213.96098961 226.87349372 211.51955934 229.375 208.3125 C231.6875 206.4375 231.6875 206.4375 233.375 205.3125 C232.22535688 201.86357065 231.78692815 201.85261977 228.875 200.0625 C226.08458585 197.77685589 225.43517405 196.65280862 224.796875 193.04296875 C224.67939562 190.4504124 224.5936037 187.85627723 224.53515625 185.26171875 C223.73234868 165.46565883 213.88278416 146.8007131 200.078125 133.01953125 C195.93884534 129.21567597 191.72071838 126.05884592 186.80859375 123.3203125 C186.33550781 122.98773438 185.86242187 122.65515625 185.375 122.3125 C185.375 121.6525 185.375 120.9925 185.375 120.3125 C186.70833333 119.3125 188.04166667 118.3125 189.375 117.3125 C189.375 116.6525 189.375 115.9925 189.375 115.3125 C187.65336601 113.60964205 187.65336601 113.60964205 185.5 111.875 C182.91306278 109.72849116 181.26315626 108.14473438 179.375 105.3125 C176.00908134 106.75503657 173.86452921 108.64514727 171.375 111.3125 C171.1584375 110.61769531 170.941875 109.92289062 170.71875 109.20703125 C169.0241681 105.55678361 166.60983611 102.89162372 163.875 100 C163.33528564 99.42677002 162.79557129 98.85354004 162.23950195 98.26293945 C142.49867425 77.63815069 116.48723955 69.58926008 88.43164062 68.95922852 C72.50748646 68.84602966 57.20221951 70.9741857 41.84008789 75.12988281 C38.02824598 76.12258458 35.0985314 76.78519204 31.375 75.3125 C29.453125 73.30859375 29.453125 73.30859375 27.625 70.75 C16.20433038 55.79891854 -0.59648066 46.14969187 -19.0390625 42.66796875 C-38.79512174 40.70957944 -57.02509346 42.72673502 -73.9375 53.75 Z " fill="#19305C" transform="translate(255.625,-0.3125)"/>
<path d="M0 0 C2.5 1.625 2.5 1.625 4 4 C4.46958953 7.22004247 4.46323271 9.13541042 2.91796875 12.01953125 C0.30600849 14.7166063 -2.64194993 15.55668839 -6.125 16.6875 C-40.40228652 28.76089212 -65.27235482 54.42537011 -80.97412109 86.72900391 C-83.19810292 91.65224973 -84.73686318 96.74949845 -86 102 C-84.94425781 100.83984375 -84.94425781 100.83984375 -83.8671875 99.65625 C-73.91392187 89.03487676 -63.0908768 82.22726304 -49 78 C-48.40840088 77.81928955 -47.81680176 77.6385791 -47.20727539 77.45239258 C-44.52801903 76.90326504 -42.11241745 76.9778026 -39.37890625 77.0703125 C-25.59708637 77.83794045 -25.59708637 77.83794045 -13.44555664 72.55517578 C-11.46597529 70.59665736 -9.55339446 68.57998892 -7.64355469 66.55371094 C-4.50600759 63.58767562 -0.81726809 61.45558052 2.875 59.25 C4.02705933 58.56164062 4.02705933 58.56164062 5.20239258 57.859375 C37.25912208 39.09776653 76.80991204 31.78585169 113.2487793 40.73779297 C115.85149353 41.44014674 118.42574154 42.19997357 121 43 C121.83370117 43.25700684 122.66740234 43.51401367 123.52636719 43.77880859 C139.20323227 48.77247563 157.1558431 56.1558431 169 68 C169.360388 71.82011276 169.54048663 74.15684085 167.4375 77.4375 C164.04118424 79.61462549 161.99649778 79.40460411 158 79 C155.48182267 77.56310662 153.35183308 76.16783874 151.0625 74.4375 C143.45972493 69.03512507 135.65212233 65.40620395 127 62 C126.02289063 61.60039062 125.04578125 61.20078125 124.0390625 60.7890625 C109.69761206 55.19547626 95.0526685 53.82031147 79.8125 53.8125 C78.57435547 53.80025391 77.33621094 53.78800781 76.06054688 53.77539062 C64.58540464 53.7573574 53.7674929 55.12823711 42.8125 58.5625 C42.07708984 58.78357422 41.34167969 59.00464844 40.58398438 59.23242188 C36.70948851 60.40171094 36.70948851 60.40171094 33 62 C34.2375 61.95359375 35.475 61.9071875 36.75 61.859375 C78.09839832 60.80858978 116.84660251 75.11274375 147.11328125 103.2265625 C148.07795001 104.14850661 149.04004324 105.07315063 150 106 C150.84510132 106.81005493 150.84510132 106.81005493 151.70727539 107.63647461 C170.11158879 125.60276989 183.74457157 150.81360715 189 176 C189.13390137 176.62293945 189.26780273 177.24587891 189.40576172 177.88769531 C191.54612443 188.1874385 192.32407556 198.36018874 192.4375 208.875 C192.45965576 209.99849854 192.48181152 211.12199707 192.50463867 212.27954102 C192.48378531 220.1198091 192.48378531 220.1198091 190.2265625 224.2265625 C187.85600556 226.11469031 186.921156 226.63797253 183.9375 226.5 C180 226 180 226 178.27929688 224.83691406 C176.46248431 222.22819311 176.61485769 220.27073182 176.59375 217.109375 C176.57401123 215.93205811 176.55427246 214.75474121 176.53393555 213.54174805 C176.52273682 212.29047119 176.51153809 211.03919434 176.5 209.75 C176.26815776 199.42420398 175.64556807 190.01025758 173 180 C172.73445313 178.8140625 172.46890625 177.628125 172.1953125 176.40625 C167.42177453 156.29824937 157.24638386 137.79039135 144 122 C144.32226562 123.13050781 144.64453125 124.26101562 144.9765625 125.42578125 C148.17257701 138.2918609 146.91976956 152.96919011 140.57421875 164.6171875 C137.84713399 168.91569319 134.79332104 172.58601107 131 176 C130.071875 176.845625 129.14375 177.69125 128.1875 178.5625 C124.76940517 181.36392824 121.00855435 183.18779939 117 185 C116.154375 185.4125 115.30875 185.825 114.4375 186.25 C111.2493792 187.23096025 108.31842208 187.04646565 105 187 C105.01571045 187.68811768 105.0314209 188.37623535 105.04760742 189.08520508 C105.88698206 231.65247847 93.43733856 268.38109904 64.06640625 299.90625 C49.56533926 314.59920257 22.80267262 335.75448471 1 336.25 C-1.45327301 336.19588368 -2.78704384 336.10647808 -5 335 C-6.59966715 331.80066571 -6.994193 328.40772733 -6 325 C-2.39682014 321.37642478 1.62666964 319.83989428 6.375 318.25 C36.488188 307.49380249 62.40820586 284.35364428 76.23486328 255.41552734 C77.18325246 253.28695752 78.10874745 251.15303302 79 249 C78.59668457 249.4552002 78.19336914 249.91040039 77.77783203 250.37939453 C67.80668597 261.40712988 52.71294163 268.50273284 38 270 C34.39457163 270.15680456 30.79599607 270.18504022 27.1875 270.1875 C26.25357422 270.19974609 25.31964844 270.21199219 24.35742188 270.22460938 C18.76211774 270.23625817 13.71144883 269.71338497 8.2824707 268.33325195 C3.94511902 267.69997727 1.44421563 268.69518953 -2.13671875 271.15234375 C-3.32367288 272.07642899 -4.50705907 273.00510906 -5.6875 273.9375 C-34.89426663 296.04187673 -72.46954733 306.76011902 -109.00439453 302.66308594 C-144.59343624 297.56287747 -173.38352615 282.85065998 -199 258 C-199.68707031 257.33871094 -200.37414062 256.67742187 -201.08203125 255.99609375 C-203.81881355 253.13112493 -204.95756655 251.25035738 -205.625 247.3125 C-205 244 -205 244 -203.375 241.5625 C-200.17763048 239.45896742 -198.77120647 239.26054775 -195 240 C-191.26606837 242.41218592 -188.46923767 245.41444875 -185.69921875 248.87109375 C-182.94251174 252.21633459 -179.80574064 254.80878144 -176.375 257.4375 C-175.4476001 258.15353394 -175.4476001 258.15353394 -174.50146484 258.8840332 C-153.54781225 274.8764016 -128.62114631 285.89349759 -102 287 C-101.32291992 287.03254883 -100.64583984 287.06509766 -99.94824219 287.09863281 C-85.90371417 287.69717275 -72.74231788 285.81279887 -59 283 C-60.63195312 282.76216797 -60.63195312 282.76216797 -62.296875 282.51953125 C-71.50053235 281.09476766 -79.5749314 279.11655251 -88 275 C-88.61198242 274.70963867 -89.22396484 274.41927734 -89.85449219 274.12011719 C-118.22627428 260.65435762 -142.31490372 241.9057436 -159 215 C-159.60980713 214.02788574 -159.60980713 214.02788574 -160.23193359 213.03613281 C-179.02191578 182.38734343 -185.46616289 142.04388552 -177.08203125 107.01171875 C-174.23302943 96.32523299 -174.23302943 96.32523299 -171 94 C-167.14014247 93.50874541 -164.91034349 93.43978862 -161.5625 95.5 C-158.78662431 99.9414011 -159.57203143 104.0586727 -160.6484375 108.94140625 C-161.15819475 110.9577233 -161.68932097 112.9688122 -162.24609375 114.97265625 C-170.19120128 146.87658545 -160.43213113 181.49632636 -144 209 C-142.41424218 211.43047142 -140.78636951 213.71121406 -139 216 C-139.15855469 215.19949219 -139.31710938 214.39898437 -139.48046875 213.57421875 C-141.12664151 202.24904528 -141.35823618 190.33134913 -136 180 C-135.5875 179.15308594 -135.175 178.30617188 -134.75 177.43359375 C-129.37845936 167.43825534 -120.68435886 159.90126131 -110 156 C-109.01 156 -108.02 156 -107 156 C-107.0314209 154.56672363 -107.0314209 154.56672363 -107.06347656 153.10449219 C-107.77671052 117.40610259 -107.77671052 117.40610259 -103 101 C-102.82339844 100.35337402 -102.64679688 99.70674805 -102.46484375 99.04052734 C-92.36258611 62.56950648 -66.82361821 30.88866527 -34.29736328 11.98291016 C-11.65898167 -0.78215391 -11.65898167 -0.78215391 0 0 Z " fill="#855BB1" transform="translate(261,84)"/>
<path d="M0 0 C6.82518752 5.8799477 10.44764343 13.2596868 11.30859375 22.20703125 C11.47855374 30.63504702 10.16590978 38.62783831 8 46.75 C8 51.01932632 9.4973823 52.20586656 12.3671875 55.17578125 C18.32564665 61.83272006 19.44219585 70.03697748 19.3359375 78.67578125 C18.43153507 87.62515877 14.62112906 95.61043223 8.38671875 102.05859375 C1.75975897 107.44909949 -6.15480406 111.18889994 -14.75 111.0625 C-15.54921875 111.05347656 -16.3484375 111.04445313 -17.171875 111.03515625 C-17.77515625 111.02355469 -18.3784375 111.01195312 -19 111 C-18.67 111.66 -18.34 112.32 -18 113 C-17.0406633 122.65627431 -18.28570985 131.76788598 -23.98828125 139.80078125 C-31.54571013 148.61125534 -39.86290443 153.81636361 -51.47265625 155.3203125 C-58.98529249 155.67749013 -66.33773963 153.56870829 -72.51171875 149.23828125 C-74.909926 147.70991928 -74.909926 147.70991928 -77.33984375 148.578125 C-78.21769531 149.04734375 -79.09554687 149.5165625 -80 150 C-81.15628906 150.57234375 -82.31257813 151.1446875 -83.50390625 151.734375 C-84.15166016 152.05857422 -84.79941406 152.38277344 -85.46679688 152.71679688 C-102.26539448 160.99867771 -121.32370651 168.33198312 -140.0625 162.4375 C-147.49853654 159.2167243 -153.03608538 154.44366853 -156.2578125 146.9453125 C-156.50273437 146.30335938 -156.74765625 145.66140625 -157 145 C-157.4125 143.96875 -157.825 142.9375 -158.25 141.875 C-160.1211597 132.20734155 -159.20153642 123.16280983 -156.55859375 113.7421875 C-155.78238636 109.93171486 -156.27953644 108.13635797 -158.33984375 104.88671875 C-159.40033439 103.42692357 -160.46281887 101.96857466 -161.52734375 100.51171875 C-166.20681206 92.53055661 -166.53160248 81.14381451 -164.3125 72.2421875 C-163.37440511 69.99857723 -162.31376665 68.04454934 -161 66 C-160.5875 65.31679687 -160.175 64.63359375 -159.75 63.9296875 C-155.36555751 57.37793536 -148.78843988 51.93571922 -141.1875 49.5625 C-138.35424297 49.06251347 -135.86140714 48.95627731 -133 49 C-133.06960937 47.76636719 -133.06960937 47.76636719 -133.140625 46.5078125 C-133.52373348 34.65881465 -130.56284241 27.02499194 -123 18 C-123.99 17.67 -124.98 17.34 -126 17 C-124.43873668 13.16780823 -121.97133075 10.82638778 -119 8 C-118.401875 7.401875 -117.80375 6.80375 -117.1875 6.1875 C-116.795625 5.795625 -116.40375 5.40375 -116 5 C-113.97588796 6.01205602 -111.9934065 7.00404118 -110.0625 8.1875 C-107.34837502 9.25670075 -105.83643564 8.59519995 -103 8 C-95.14849799 7.38139681 -87.92404934 8.04755191 -81.05859375 12.1640625 C-78.23407017 13.31102274 -76.89382383 12.93335408 -74 12 C-71.81961158 10.83322765 -69.67653513 9.5955849 -67.5625 8.3125 C-48.41310537 -2.92423453 -20.6752871 -13.88020276 0 0 Z " fill="#FE50B4" transform="translate(330,177)"/>
<path d="M0 0 C0.33 0.66 0.66 1.32 1 2 C-0.0195084 4.33905231 -1.09375031 6.51613768 -2.3125 8.75 C-2.67496826 9.41813721 -3.03743652 10.08627441 -3.41088867 10.7746582 C-20.22576785 41.04286661 -47.08703721 63.45897094 -79.99609375 74.2109375 C-82.18481373 74.91890253 -82.18481373 74.91890253 -84 77 C-84.28005058 78.91180549 -84.28005058 78.91180549 -84.1875 81 C-84.18105469 81.70125 -84.17460937 82.4025 -84.16796875 83.125 C-84.10706133 85.09056373 -84.10706133 85.09056373 -83 87 C-88.6249447 87.8279413 -94.09333256 88.05473353 -99.7734375 87.95703125 C-100.4683429 87.94678925 -101.16324829 87.93654724 -101.87921143 87.92599487 C-104.78528192 87.88062248 -107.69078239 87.83077488 -110.59619141 87.75317383 C-112.73871863 87.69883953 -114.88039583 87.66966952 -117.0234375 87.64453125 C-118.29106934 87.61721924 -119.55870117 87.58990723 -120.86474609 87.56176758 C-124.09722708 87.68347282 -124.09722708 87.68347282 -125.93603516 90.0222168 C-126.46269775 91.00121948 -126.46269775 91.00121948 -127 92 C-128.75 91.8125 -128.75 91.8125 -131 91 C-131.53238281 90.20464844 -132.06476563 89.40929687 -132.61328125 88.58984375 C-135.88203961 85.04289319 -138.83247143 84.69351502 -143.4375 83.75 C-165.5033033 78.55653641 -185.14854326 68.03137389 -202 53 C-198.56869391 51.85355895 -196.26028112 52.2037937 -192.75 52.9375 C-154.87856733 59.06624747 -116.95695113 47.73573164 -86 26 C-84.36531433 24.63652915 -82.73906497 23.26281997 -81.125 21.875 C-77.6464431 19.07408405 -77.6464431 19.07408405 -74.88671875 18.7578125 C-72.8125 19 -72.8125 19 -69 20 C-63.42220108 21.19706187 -57.9277915 21.18366365 -52.25 21.1875 C-51.3115625 21.19974609 -50.373125 21.21199219 -49.40625 21.22460938 C-32.21009734 21.26023676 -15.16578607 15.31676173 -2.8125 3.0625 C-1.86403781 2.05184357 -0.92178685 1.03504394 0 0 Z " fill="#3342AD" transform="translate(340,332)"/>
<path d="M0 0 C1.48222046 0.01063477 1.48222046 0.01063477 2.99438477 0.02148438 C4.10056152 0.02172607 5.20673828 0.02196777 6.34643555 0.0222168 C7.53092285 0.0529126 8.71541016 0.0836084 9.93579102 0.11523438 C11.75892822 0.14290894 11.75892822 0.14290894 13.61889648 0.17114258 C44.31229703 0.90405301 78.65216937 9.88355768 101.49829102 31.61523438 C98.98556777 32.48502319 97.47970373 32.61203313 94.82763672 32.15527344 C91.15166792 31.55901011 87.5664912 31.43526953 83.85375977 31.41210938 C83.12570633 31.4064093 82.39765289 31.40070923 81.64753723 31.39483643 C80.10699901 31.38542517 78.56644102 31.37886792 77.02587891 31.375 C74.73048857 31.36542091 72.436045 31.33441587 70.14086914 31.30273438 C37.74224155 31.06996589 6.58578346 43.36430428 -18.50170898 63.61523438 C-18.98317383 64.13875488 -19.46463867 64.66227539 -19.96069336 65.20166016 C-23.5839727 68.9344342 -26.18957252 70.01759968 -31.41577148 70.27929688 C-33.65276778 70.28893552 -35.88996203 70.27499668 -38.12670898 70.24023438 C-47.6713833 70.36030977 -55.71280571 70.58800711 -64.50170898 74.61523438 C-65.59225586 75.11152344 -66.68280273 75.6078125 -67.80639648 76.11914062 C-77.76140105 81.07365213 -85.73423722 87.81752109 -92.50170898 96.61523438 C-93.82530957 92.64443262 -92.57122894 90.22280591 -91.12670898 86.49023438 C-90.85632813 85.78664795 -90.58594727 85.08306152 -90.30737305 84.3581543 C-84.92344478 70.7887944 -77.90721244 58.76194654 -68.50170898 47.61523438 C-67.74889648 46.72191406 -66.99608398 45.82859375 -66.22045898 44.90820312 C-51.33124578 27.84327743 -32.36459259 14.59032231 -10.69189453 7.78051758 C-6.60927636 6.43148435 -6.60927636 6.43148435 -4.14111328 3.05737305 C-2.50170898 0.61523438 -2.50170898 0.61523438 0 0 Z " fill="#3342AD" transform="translate(267.501708984375,91.384765625)"/>
<path d="M0 0 C0.99 0.33 1.98 0.66 3 1 C2.42894531 1.42667969 1.85789062 1.85335937 1.26953125 2.29296875 C-29.18234456 25.77334994 -48.98484774 60.87125775 -54 99 C-54.53201004 105.15383023 -54.59795324 111.32707147 -54.6875 117.5 C-54.72079252 119.11330673 -54.75529239 120.72658901 -54.79101562 122.33984375 C-54.87452153 126.2264232 -54.94195098 130.11296047 -55 134 C-55.59603027 134.2568457 -56.19206055 134.51369141 -56.80615234 134.77832031 C-71.89070755 141.36345609 -79.90877258 149.54708749 -86 165 C-86.83442153 167.83205267 -87.12825935 170.35196738 -87.1328125 173.30078125 C-87.13410156 174.11353516 -87.13539062 174.92628906 -87.13671875 175.76367188 C-87.13091797 177.0253418 -87.13091797 177.0253418 -87.125 178.3125 C-87.12886719 179.14201172 -87.13273437 179.97152344 -87.13671875 180.82617188 C-87.12909367 185.65665906 -86.80986449 190.23722548 -86 195 C-90.08118477 191.2559254 -92.78055215 187.46694173 -95.4375 182.625 C-95.82510498 181.92600586 -96.21270996 181.22701172 -96.61206055 180.50683594 C-100.37832406 173.56022421 -103.30707728 166.41792823 -106 159 C-106.37898438 158.00742187 -106.75796875 157.01484375 -107.1484375 155.9921875 C-113.47204696 138.54282905 -113.39570195 121.35854124 -113 103 C-112.67 103 -112.34 103 -112 103 C-111.67 110.26 -111.34 117.52 -111 125 C-109.2675 120.05 -109.2675 120.05 -107.5 115 C-103.99611674 105.25540879 -100.00126908 96.06098999 -95 87 C-94.43176514 85.95851807 -94.43176514 85.95851807 -93.85205078 84.89599609 C-85.78363766 70.23667115 -75.93538029 57.54323059 -64.39599609 45.46337891 C-63.46646889 44.4889847 -62.54227418 43.5094751 -61.62353516 42.52490234 C-44.78516521 24.51134831 -24.11188844 11.55966742 -2 1 C-1.34 0.67 -0.68 0.34 0 0 Z " fill="#3342AD" transform="translate(209,106)"/>
<path d="M0 0 C3.96951337 3.74819158 7.12953325 7.71701095 10.25 12.1875 C10.69601562 12.81591797 11.14203125 13.44433594 11.6015625 14.09179688 C20.09090908 26.1183712 16.40848823 44.77544771 14.046875 58.72265625 C12.97957284 64.37914509 11.63421558 69.94606732 10.125 75.5 C9.89280762 76.37857666 9.66061523 77.25715332 9.42138672 78.16235352 C7.89847843 83.39319016 6.24422103 86.3734825 2 90 C0.9635504 91.19496542 -0.05976434 92.40160663 -1.0625 93.625 C-3.17916131 96.12255152 -5.17270196 98.28342619 -8 100 C-8.66 100 -9.32 100 -10 100 C-10 100.99 -10 101.98 -10 103 C-9.195625 103.226875 -8.39125 103.45375 -7.5625 103.6875 C-5 105 -5 105 -4.1015625 107.1171875 C-3.9564517 111.23610184 -5.76111301 114.01010191 -7.8125 117.4375 C-8.42665771 118.49094604 -8.42665771 118.49094604 -9.05322266 119.56567383 C-31.16576144 156.83809926 -67.26090968 190.3494799 -109 204 C-109.99 203.67 -110.98 203.34 -112 203 C-111.51233154 202.68885254 -111.02466309 202.37770508 -110.5222168 202.05712891 C-99.46758843 194.96164845 -89.69075323 187.72093708 -80.40234375 178.390625 C-79.08496086 177.07966837 -77.75388236 175.78037827 -76.3671875 174.54296875 C-52.4949668 152.85799341 -40.21291284 116.38277176 -38.60546875 85.03125 C-38.32747921 78.68923936 -38.13449636 72.34659337 -38 66 C-37.40469482 65.87737793 -36.80938965 65.75475586 -36.19604492 65.62841797 C-27.77189639 63.83626446 -21.095062 60.95004326 -14 56 C-13.2575 55.67 -12.515 55.34 -11.75 55 C-9.46728289 53.69559023 -9.14913942 52.34441217 -8 50 C-7.05156932 48.68032645 -6.09244413 47.36829894 -5.125 46.0625 C2.54670159 34.46093167 4.0039175 19.96138722 1.52832031 6.41992188 C1.05330971 4.26934291 0.55051408 2.132371 0 0 Z " fill="#3342AD" transform="translate(404,205)"/>
<path d="M0 0 C3.05814885 1.6590767 4.44960706 3.89921413 6 7 C7.66322987 21.69186385 -2.72797201 36.07875352 -11.375 47.125 C-18.27665796 55.76297601 -25.38213614 64.02574935 -34 71 C-34.95648438 71.78246094 -35.91296875 72.56492187 -36.8984375 73.37109375 C-44.48518775 79.45896685 -52.36704464 84.52245972 -61 89 C-61.72703125 89.38285156 -62.4540625 89.76570313 -63.203125 90.16015625 C-69.10811286 92.82732514 -75.66098862 92.83231051 -82 92 C-85.3125 90.3125 -85.3125 90.3125 -87 87 C-89.45633288 71.92609396 -81.33530701 59.74841072 -73 48 C-57.48816414 26.62542302 -28.9994987 -3.3433006 0 0 Z " fill="#FFF48D" transform="translate(297,210)"/>
<path d="M0 0 C5.07160164 4.31839347 8.26660517 8.11527173 8.921875 14.90625 C10.1448602 40.62715755 -4.73705391 61.16317041 -21.046875 79.71875 C-24.93153263 83.92825705 -28.96855606 87.74449222 -33.421875 91.34375 C-34.4015625 92.1378125 -35.38125 92.931875 -36.390625 93.75 C-50.96684809 105.37170254 -67.97552662 115.9053002 -87.171875 116.03125 C-87.89777832 116.03825928 -88.62368164 116.04526855 -89.37158203 116.05249023 C-95.3651025 115.84665921 -99.61060459 113.85909721 -104.12890625 109.81640625 C-110.46083232 101.73928501 -110.31850757 93.1814833 -109.421875 83.34375 C-108.57510048 79.07438383 -107.1931437 75.31202262 -105.421875 71.34375 C-104.93589844 70.23644531 -104.44992188 69.12914062 -103.94921875 67.98828125 C-96.79554342 52.75078368 -86.43956077 40.05328998 -74.421875 28.34375 C-73.63683594 27.49103516 -73.63683594 27.49103516 -72.8359375 26.62109375 C-57.77116048 10.63463206 -22.44368031 -14.15367227 0 0 Z M-78.12939453 52.32373047 C-87.87567856 64.24269417 -97.00146005 78.48456384 -96.73828125 94.22265625 C-96.59671723 97.49430651 -96.59671723 97.49430651 -94.734375 100.65625 C-88.53176502 103.81607018 -82.0192759 103.3151412 -75.3984375 101.52734375 C-63.24099762 96.85015173 -52.23825966 88.7713214 -42.421875 80.34375 C-41.51695312 79.57289063 -40.61203125 78.80203125 -39.6796875 78.0078125 C-33.17415162 72.29519512 -27.70118911 66.19080319 -22.421875 59.34375 C-21.67035156 58.41949219 -20.91882813 57.49523437 -20.14453125 56.54296875 C-12.30261617 46.63668628 -2.79028684 32.48395247 -3.09375 19.30859375 C-3.64282798 16.0206625 -5.33474466 13.86058364 -7.421875 11.34375 C-30.72693177 -0.30877838 -65.17728626 37.30491461 -78.12939453 52.32373047 Z " fill="#FF3D7D" transform="translate(306.421875,199.65625)"/>
<path d="M0 0 C1.85519888 2.78279832 3.35570241 5.61957655 4.8671875 8.59741211 C11.61934104 21.80049165 19.70558377 33.27377101 30 44 C31.24523437 45.33998047 31.24523437 45.33998047 32.515625 46.70703125 C43.13000383 57.80247111 55.48670858 65.8161691 69 73 C69.65291016 73.34836914 70.30582031 73.69673828 70.97851562 74.05566406 C84.42059304 81.1633397 96.83853753 85.42585909 112 87 C105.46836303 93.53163697 87.88192948 93.20139912 78.99487305 93.37939453 C59.29766371 93.34469938 40.12753132 89.69237851 22 82 C22.33 81.34 22.66 80.68 23 80 C21.73205166 77.58297348 20.40697246 75.27195225 19 72.9375 C6.35164122 51.15957316 -1.39225809 25.37003637 0 0 Z " fill="#3442AD" transform="translate(92,279)"/>
<path d="M0 0 C3.05814885 1.6590767 4.44960706 3.89921413 6 7 C6.13415472 9.6723621 6.04318541 12.32250488 6 15 C5.67 15 5.34 15 5 15 C5 13.35 5 11.7 5 10 C-25.73664351 21.08534684 -52.6881619 46.25428557 -66.9375 75.75 C-69.07292712 80.70566362 -70.22564829 85.67199791 -71 91 C-70.34 91.33 -69.68 91.66 -69 92 C-80.51123596 92.75842697 -80.51123596 92.75842697 -85.3125 90.3125 C-88.47232018 84.10989002 -87.9713912 77.5974009 -86.18359375 70.9765625 C-74.32984569 40.165078 -45.56230043 14.22523967 -16 1 C-10.81102819 -0.72965727 -5.40456296 -0.62308245 0 0 Z " fill="#FFCB71" transform="translate(297,210)"/>
<path d="M0 0 C1.26908203 0.00418945 2.53816406 0.00837891 3.84570312 0.01269531 C17.15828142 0.17239189 29.2960612 2.0811719 41.953125 6.37890625 C44.63881425 7.33868567 44.63881425 7.33868567 47.046875 7.77734375 C52.12825348 8.96890731 53.98596649 11.65881004 56.75 16 C58.14307323 18.40727431 59.45407951 20.85181242 60.75 23.3125 C61.09595215 23.95509766 61.4419043 24.59769531 61.79833984 25.25976562 C66.57583845 34.18364755 71.2291378 43.46322967 73.75 53.3125 C73.42 54.3025 73.09 55.2925 72.75 56.3125 C72.17894531 55.70664063 71.60789062 55.10078125 71.01953125 54.4765625 C50.21885905 32.98143225 23.15429763 18.73534019 -6.25 13.3125 C-6.97687012 13.16586914 -7.70374023 13.01923828 -8.45263672 12.86816406 C-21.74433342 10.2000704 -34.72446941 9.95670903 -48.25 10.3125 C-44.53836982 7.34247982 -40.83900681 6.03690821 -36.3125 4.75 C-35.62865234 4.54181641 -34.94480469 4.33363281 -34.24023438 4.11914062 C-22.97657659 0.84374698 -11.68671026 -0.05303633 0 0 Z " fill="#3442AD" transform="translate(340.25,136.6875)"/>
<path d="M0 0 C1.32 0 2.64 0 4 0 C5.16796875 1.46875 5.16796875 1.46875 6.1875 3.5 C9.34167678 9.02966616 14.25165916 14.12582958 20 17 C19.62449315 19.54147391 19.31242047 20.72187867 17.36328125 22.45703125 C16.68652344 22.90433594 16.00976562 23.35164063 15.3125 23.8125 C10.70905163 27.06637628 6.5517894 30.89642119 4 36 C2.68 36 1.36 36 0 36 C-1.60546875 34.2421875 -1.60546875 34.2421875 -3.1875 31.875 C-6.35516222 27.48159022 -9.54031523 25.04664084 -14.27734375 22.484375 C-16 21 -16 21 -16.4765625 18.50390625 C-16 16 -16 16 -14.49609375 14.48046875 C-13.81675781 14.05378906 -13.13742188 13.62710938 -12.4375 13.1875 C-7.46359061 9.78010656 -2.73277431 5.46554861 0 0 Z " fill="#FCF48E" transform="translate(37,110)"/>
<path d="M0 0 C2.50555771 0.37396384 3.70087645 0.65453337 5.38671875 2.6015625 C5.81597656 3.26929688 6.24523437 3.93703125 6.6875 4.625 C9.62650778 8.84085178 13.01525223 11.48561703 17.2421875 14.359375 C17.82226562 14.90078125 18.40234375 15.4421875 19 16 C19 17.32 19 18.64 19 20 C17.27734375 21.60546875 17.27734375 21.60546875 14.9375 23.1875 C10.53048454 26.37998364 7.58961322 29.81840986 4.5078125 34.27734375 C4.01023437 34.84582031 3.51265625 35.41429687 3 36 C2.01 36 1.02 36 0 36 C-1.578125 34.2421875 -1.578125 34.2421875 -3.25 31.875 C-6.77187907 27.13429653 -10.64039987 22.67980007 -16 20 C-16 18.68 -16 17.36 -16 16 C-14.49609375 14.578125 -14.49609375 14.578125 -12.4375 13.25 C-7.49072409 9.79957979 -2.73350028 5.46700056 0 0 Z " fill="#FAF28D" transform="translate(310,25)"/>
<path d="M0 0 C2.72462503 0.36130897 3.79074865 0.76334668 5.640625 2.85546875 C6.17171875 3.62503906 6.7028125 4.39460938 7.25 5.1875 C10.61290995 9.75405451 14.2939754 12.88302267 19 16 C18.6364501 20.53368117 15.3486604 22.72931295 12.125 25.5 C8.74505265 28.44641491 5.52665023 31.25419687 3 35 C-1.16733765 34.50972498 -2.74653054 32.36727255 -5.375 29.25 C-8.70612192 25.40682132 -11.9750602 22.09610754 -16 19 C-15.63869103 16.27537497 -15.23665332 15.20925135 -13.14453125 13.359375 C-12.37496094 12.82828125 -11.60539063 12.2971875 -10.8125 11.75 C-6.24594549 8.38709005 -3.11697733 4.7060246 0 0 Z " fill="#FBF28E" transform="translate(242,447)"/>
<path d="M0 0 C3.33646536 1.4163551 5.15544293 3.08171998 7.4375 5.875 C10.06353496 8.98775695 12.68900776 11.59200564 16 14 C15.703125 15.85546875 15.703125 15.85546875 15 18 C13.30045385 19.20929245 11.59651883 20.41376593 9.85546875 21.5625 C6.83215661 23.9047713 5.06688285 26.8057265 3 30 C-1.00042347 29.48324151 -2.44327196 27.67734243 -4.9375 24.625 C-7.12513032 21.95461229 -8.75432278 20.14287611 -11.75390625 18.3984375 C-12.49511719 17.93695313 -13.23632812 17.47546875 -14 17 C-14 16.01 -14 15.02 -14 14 C-12.20703125 12.421875 -12.20703125 12.421875 -9.8125 10.75 C-5.51415476 7.57030927 -2.84743895 4.5007906 0 0 Z " fill="#F9B12F" transform="translate(408,291)"/>
<path d="M0 0 C4.03810445 1.34603482 5.47295076 3.65336723 8 7 C8 7.66 8 8.32 8 9 C8.5775 9.268125 9.155 9.53625 9.75 9.8125 C12.07363365 11.0388622 14.03824646 12.24843434 16 14 C16 14.99 16 15.98 16 17 C14.171875 18.61328125 14.171875 18.61328125 11.75 20.3125 C8.80055117 22.48189116 6.54288112 24.2675776 4.6875 27.4375 C4.130625 28.283125 3.57375 29.12875 3 30 C1.68 30 0.36 30 -1 30 C-2.7109375 28.171875 -2.7109375 28.171875 -4.375 25.75 C-7.26437169 21.7872548 -9.74297685 19.38808616 -14 17 C-13.65978036 13.82461668 -12.97533396 12.97723135 -10.5625 10.75 C-8 9 -8 9 -6 9 C-5.7525 8.443125 -5.505 7.88625 -5.25 7.3125 C-3.78393985 4.60028873 -1.97010529 2.36412635 0 0 Z " fill="#F9B12F" transform="translate(365,80)"/>
<path d="M0 0 C3.33646536 1.4163551 5.15544293 3.08171998 7.4375 5.875 C10.06353496 8.98775695 12.68900776 11.59200564 16 14 C14.5836449 17.33646536 12.91828002 19.15544293 10.125 21.4375 C7.01224305 24.06353496 4.40799436 26.68900776 2 30 C-1.33646536 28.5836449 -3.15544293 26.91828002 -5.4375 24.125 C-8.06353496 21.01224305 -10.68900776 18.40799436 -14 16 C-12.5836449 12.66353464 -10.91828002 10.84455707 -8.125 8.5625 C-5.01224305 5.93646504 -2.40799436 3.31099224 0 0 Z " fill="#FAC971" transform="translate(38,238)"/>
<path d="M0 0 C3.27666077 1.09222026 3.91609231 1.82718854 6 4.4375 C7.96428932 6.88774632 9.32070868 8.21380578 12 10 C11.44243814 13.53631699 10.35846524 14.88269342 7.5625 17.0625 C5.08722511 19.01068086 3.79578076 20.30632886 2 23 C1.34 23 0.68 23 0 23 C-1.62109375 21.35546875 -1.62109375 21.35546875 -3.4375 19.1875 C-5.97339332 16.17536735 -5.97339332 16.17536735 -8.72265625 13.36328125 C-10 12 -10 12 -10 10 C-8.3203125 8.37890625 -8.3203125 8.37890625 -6.125 6.5625 C-3.53806278 4.41599116 -1.88815626 2.83223438 0 0 Z " fill="#3241AC" transform="translate(95,123)"/>
<path d="M0 0 C3 0 3 0 4.71875 1.6796875 C5.3065625 2.40414062 5.894375 3.12859375 6.5 3.875 C8.63040629 6.48194454 10.16002857 8.10668572 13 10 C11.85274723 13.44175831 10.74715348 14.29119275 8 16.5625 C5.05040821 18.92210327 5.05040821 18.92210327 3 22 C0 22 0 22 -1.71875 20.3203125 C-2.3065625 19.59585938 -2.894375 18.87140625 -3.5 18.125 C-5.63040629 15.51805546 -7.16002857 13.89331428 -10 12 C-10 11.34 -10 10.68 -10 10 C-8.3203125 8.37890625 -8.3203125 8.37890625 -6.125 6.5625 C-3.53806278 4.41599116 -1.88815626 2.83223438 0 0 Z " fill="#C557A5" transform="translate(113,73)"/>
<path d="M0 0 C3.44175831 1.14725277 4.29119275 2.25284652 6.5625 5 C8.92210327 7.94959179 8.92210327 7.94959179 12 10 C11.44243814 13.53631699 10.35846524 14.88269342 7.5625 17.0625 C5.08722511 19.01068086 3.79578076 20.30632886 2 23 C-1.44175831 21.85274723 -2.29119275 20.74715348 -4.5625 18 C-6.92210327 15.05040821 -6.92210327 15.05040821 -10 13 C-8.4373676 9.16444775 -5.93550032 6.86390275 -3 4 C-1.97186389 2.68824014 -0.95915568 1.3630107 0 0 Z " fill="#3241AC" transform="translate(95,401)"/>
<path d="M0 0 C0.66 0 1.32 0 2 0 C3.62109375 1.6796875 3.62109375 1.6796875 5.4375 3.875 C7.58400884 6.46193722 9.16776562 8.11184374 12 10 C10.49055027 13.84223567 8.23156958 15.51995823 5 18 C3.31471312 19.64783606 1.64302953 21.31002677 0 23 C-0.45890625 22.46890625 -0.9178125 21.9378125 -1.390625 21.390625 C-4.49493717 17.81675301 -7.58181312 14.28145941 -11 11 C-10.45730469 10.54109375 -9.91460937 10.0821875 -9.35546875 9.609375 C-8.64003906 8.99578125 -7.92460937 8.3821875 -7.1875 7.75 C-6.47980469 7.14671875 -5.77210938 6.5434375 -5.04296875 5.921875 C-2.94002444 4.06082782 -2.94002444 4.06082782 -1.36328125 1.765625 C-0.91339844 1.18296875 -0.46351563 0.6003125 0 0 Z " fill="#3241AC" transform="translate(433,105)"/>
<path d="M0 0 C4.21548466 1.56129062 6.22687017 4.58691713 9 8 C9.99 8.66 10.98 9.32 12 10 C12 13 12 13 10.3203125 14.71875 C9.23363281 15.60046875 9.23363281 15.60046875 8.125 16.5 C5.51805546 18.63040629 3.89331428 20.16002857 2 23 C1.34 23 0.68 23 0 23 C-1.22238778 21.2820496 -2.44084059 19.5609268 -3.625 17.81640625 C-5.42442641 15.43932306 -7.6509463 13.81212714 -10 12 C-10 11.34 -10 10.68 -10 10 C-8.3203125 8.37890625 -8.3203125 8.37890625 -6.125 6.5625 C-3.53806278 4.41599116 -1.88815626 2.83223438 0 0 Z " fill="#3241AC" transform="translate(171,54)"/>
<path d="M0 0 C0.66 0 1.32 0 2 0 C2.5775 0.9075 3.155 1.815 3.75 2.75 C6.2758091 6.39839092 8.24557868 7.78147831 12 10 C10.49055027 13.84223567 8.23156958 15.51995823 5 18 C3.31471312 19.64783606 1.64302953 21.31002677 0 23 C-0.45890625 22.46890625 -0.9178125 21.9378125 -1.390625 21.390625 C-4.49493717 17.81675301 -7.58181312 14.28145941 -11 11 C-10.45730469 10.54109375 -9.91460937 10.0821875 -9.35546875 9.609375 C-8.64003906 8.99578125 -7.92460937 8.3821875 -7.1875 7.75 C-6.47980469 7.14671875 -5.77210938 6.5434375 -5.04296875 5.921875 C-2.94002444 4.06082782 -2.94002444 4.06082782 -1.36328125 1.765625 C-0.91339844 1.18296875 -0.46351563 0.6003125 0 0 Z " fill="#3241AD" transform="translate(354,409)"/>
<path d="M0 0 C3.53265167 1.30838951 5.37292416 3.42046294 7.65625 6.3671875 C9.31256362 8.37980114 11.13840635 10.17784689 13 12 C12.36191406 12.55429687 11.72382813 13.10859375 11.06640625 13.6796875 C10.24011719 14.40414063 9.41382813 15.12859375 8.5625 15.875 C7.73878906 16.59429687 6.91507813 17.31359375 6.06640625 18.0546875 C3.94017845 19.83238745 3.94017845 19.83238745 3 22 C-0.06686972 21.67140682 -0.91291148 21.10394436 -2.9375 18.6875 C-3.618125 17.800625 -4.29875 16.91375 -5 16 C-5.9075 15.278125 -6.815 14.55625 -7.75 13.8125 C-8.4925 13.214375 -9.235 12.61625 -10 12 C-10 11.34 -10 10.68 -10 10 C-8.3203125 8.37890625 -8.3203125 8.37890625 -6.125 6.5625 C-3.53806278 4.41599116 -1.88815626 2.83223438 0 0 Z " fill="#C758A8" transform="translate(210,402)"/>
<path d="M0 0 C0.66 0 1.32 0 2 0 C3.22238778 1.7179504 4.44084059 3.4390732 5.625 5.18359375 C7.42442641 7.56067694 9.6509463 9.18787286 12 11 C12 11.66 12 12.32 12 13 C10.3203125 14.62109375 10.3203125 14.62109375 8.125 16.4375 C5.53806278 18.58400884 3.88815626 20.16776562 2 23 C-2.21548466 21.43870938 -4.22687017 18.41308287 -7 15 C-7.99 14.34 -8.98 13.68 -10 13 C-10 10 -10 10 -8.3203125 8.28125 C-7.59585937 7.6934375 -6.87140625 7.105625 -6.125 6.5 C-3.51805546 4.36959371 -1.89331428 2.83997143 0 0 Z " fill="#C657A5" transform="translate(450,365)"/>
<path d="M0 0 C0.680625 0.70125 1.36125 1.4025 2.0625 2.125 C5.20780513 5.27934337 8.5888386 8.13934304 12 11 C11.29875 11.680625 10.5975 12.36125 9.875 13.0625 C7.15381461 15.76042739 4.73904225 18.66593452 2.33203125 21.64453125 C1.67267578 22.31548828 1.67267578 22.31548828 1 23 C0.34 23 -0.32 23 -1 23 C-1.93637414 21.56199685 -2.86960101 20.12177263 -3.78125 18.66796875 C-5.78725325 15.92257327 -8.31921165 14.07151827 -11 12 C-10.29875 11.319375 -9.5975 10.63875 -8.875 9.9375 C-5.72065663 6.79219487 -2.86065696 3.4111614 0 0 Z " fill="#FBC972" transform="translate(370,208)"/>
<path d="M0 0 C3.27666077 1.09222026 3.91609231 1.82718854 6 4.4375 C7.96428932 6.88774632 9.32070868 8.21380578 12 10 C10.43870938 14.21548466 7.41308287 16.22687017 4 19 C3.34 19.99 2.68 20.98 2 22 C-1.54433654 20.58226538 -2.33806119 19.32387762 -4 16 C-4.66 15.67 -5.32 15.34 -6 15 C-8.51083114 13.74458443 -8.87125446 12.49936512 -10 10 C-9.52949219 9.61328125 -9.05898438 9.2265625 -8.57421875 8.828125 C-5.3182388 6.10469664 -2.34546467 3.58718126 0 0 Z " fill="#FAF18D" transform="translate(477,193)"/>
<path d="M0 0 C3.83219177 1.56126332 6.17361222 4.02866925 9 7 C9.598125 7.598125 10.19625 8.19625 10.8125 8.8125 C11.204375 9.204375 11.59625 9.59625 12 10 C10.90777974 13.27666077 10.17281146 13.91609231 7.5625 16 C5.11225368 17.96428932 3.78619422 19.32070868 2 22 C-1.27666077 20.90777974 -1.91609231 20.17281146 -4 17.5625 C-5.96428932 15.11225368 -7.32070868 13.78619422 -10 12 C-8.43873668 8.16780823 -5.97133075 5.82638778 -3 3 C-2.401875 2.401875 -1.80375 1.80375 -1.1875 1.1875 C-0.795625 0.795625 -0.40375 0.40375 0 0 Z " fill="#FDF28E" transform="translate(214,182)"/>
</svg>
